<svg width="214" height="212" viewBox="0 0 214 212" fill="none" xmlns="http://www.w3.org/2000/svg">
<g clip-path="url(#clip0_20_161)">
<path fill-rule="evenodd" clip-rule="evenodd" d="M463.167 255.48C440.21 238.861 409.15 218.491 376.141 213.431C365.133 211.744 353.907 211.759 342.693 214.184C334.908 213.321 327.03 213.348 319.14 214.51C312.506 213.495 305.794 213.097 299.053 213.473C296.992 213.038 294.922 212.659 292.844 212.34C291.188 212.087 289.528 211.871 287.863 211.697C266.749 197.396 240.865 182.823 213.656 178.653C197.146 176.122 180.146 177.421 163.432 184.933C146.719 192.445 130.302 206.163 114.945 228.455C79.1761 280.374 82.6298 326.458 85.2899 361.953C85.5369 365.249 85.777 368.453 85.9783 371.562C87.1635 389.871 86.9962 404.843 79.0029 415.772C71.0165 426.691 55.1845 433.612 24.9149 435.721L24.9483 436.014C55.2465 433.903 71.2022 426.971 79.2693 415.941C87.3294 404.921 87.4813 389.849 86.297 371.554C86.0956 368.443 85.8555 365.239 85.6086 361.943C82.9495 326.452 79.5034 280.455 115.216 228.618C130.551 206.358 146.929 192.681 163.579 185.198C180.227 177.715 197.159 176.421 213.612 178.943C240.559 183.073 266.22 197.44 287.237 211.633C286.242 211.535 285.246 211.452 284.248 211.384C283.229 211.085 282.207 210.798 281.182 210.524C265.018 201.452 247.168 193.835 228.709 191.006C212.199 188.475 195.2 189.774 178.486 197.286C161.773 204.798 145.356 218.516 129.998 240.808C94.2297 292.727 97.6834 338.811 100.343 374.306C100.59 377.602 100.831 380.806 101.032 383.915C102.217 402.224 102.05 417.196 94.0565 428.125C86.0701 439.044 70.2381 445.965 39.9684 448.074L40.0019 448.367C70.3 446.256 86.2558 439.324 94.3229 428.294C102.383 417.274 102.535 402.202 101.351 383.907C101.149 380.796 100.909 377.592 100.662 374.296C98.0031 338.805 94.557 292.808 130.269 240.971C145.604 218.711 161.983 205.034 178.632 197.551C195.281 190.068 212.212 188.774 228.666 191.296C246.7 194.06 264.159 201.41 280.035 210.223C279.31 210.037 278.584 209.857 277.856 209.683C267.933 205.579 257.612 202.412 247.094 200.8C230.584 198.269 213.585 199.568 196.87 207.08C180.157 214.591 163.74 228.31 148.383 250.602C112.614 302.521 116.068 348.605 118.728 384.1L118.729 384.104C118.975 387.398 119.215 390.601 119.417 393.709C120.602 412.018 120.435 426.99 112.441 437.919C104.455 448.838 88.6229 455.759 58.3532 457.868L58.3867 458.161C88.6848 456.05 104.641 449.118 112.708 438.088C120.768 427.068 120.92 411.996 119.735 393.701C119.535 390.604 119.296 387.414 119.05 384.134L119.048 384.11L119.048 384.098L119.047 384.09C116.388 348.599 112.942 302.602 148.654 250.765C163.989 228.505 180.367 214.828 197.017 207.345C213.666 199.862 230.597 198.568 247.051 201.09C256.95 202.607 266.677 205.506 276.063 209.271C273.599 208.723 271.121 208.255 268.632 207.873C252.122 205.342 235.123 206.641 218.408 214.153C201.695 221.665 185.278 235.384 169.921 257.675C134.152 309.594 137.606 355.678 140.266 391.173C140.513 394.469 140.753 397.673 140.955 400.783C142.14 419.091 141.973 434.064 133.979 444.993C125.993 455.912 110.161 462.832 79.8911 464.942L79.9247 465.235C110.223 463.124 126.178 456.191 134.246 445.162C142.306 434.142 142.458 419.069 141.273 400.774C141.072 397.667 140.832 394.466 140.586 391.175L140.585 391.164C137.926 355.672 134.48 309.675 170.192 257.838C185.527 235.579 201.905 221.902 218.555 214.418C235.204 206.936 252.135 205.641 268.589 208.163C271.664 208.634 274.722 209.239 277.758 209.962C278.74 210.368 279.717 210.783 280.69 211.207C268.061 210.813 255.259 212.94 242.62 218.621C225.907 226.132 209.49 239.851 194.133 262.143C158.365 314.062 161.818 360.145 164.478 395.641C164.725 398.936 164.966 402.141 165.167 405.25C166.352 423.558 166.185 438.531 158.191 449.46C150.205 460.379 134.373 467.3 104.103 469.409L104.137 469.702C134.435 467.591 150.391 460.659 158.458 449.629C166.518 438.609 166.67 423.537 165.485 405.241C165.284 402.136 165.045 398.936 164.798 395.647L164.797 395.634L164.797 395.631C162.138 360.139 158.692 314.143 194.404 262.305C209.739 240.046 226.117 226.369 242.767 218.886C255.599 213.118 268.599 211.027 281.419 211.526C282.892 212.175 284.356 212.844 285.809 213.53C286.529 213.955 287.246 214.382 287.959 214.811C281.605 216.004 275.25 217.955 268.936 220.793C252.223 228.305 235.806 242.024 220.448 264.315C184.68 316.234 188.134 362.318 190.794 397.813C191.041 401.109 191.281 404.313 191.482 407.423C192.667 425.731 192.5 440.704 184.507 451.632C176.52 462.552 160.688 469.472 130.419 471.582L130.452 471.875C160.75 469.764 176.706 462.831 184.773 451.802C192.833 440.782 192.985 425.709 191.801 407.414C191.6 404.309 191.36 401.109 191.114 397.82L191.112 397.804C188.453 362.312 185.007 316.315 220.719 264.478C236.055 242.218 252.433 228.541 269.083 221.058C275.475 218.185 281.908 216.225 288.341 215.042C291.452 216.922 294.491 218.84 297.448 220.77C297.244 220.859 297.041 220.95 296.838 221.041C280.125 228.553 263.708 242.272 248.35 264.563C212.582 316.482 216.035 362.566 218.696 398.061L218.696 398.065C218.943 401.359 219.183 404.562 219.384 407.671C220.569 425.979 220.402 440.952 212.409 451.88C204.422 462.8 188.59 469.72 158.321 471.829L158.354 472.123C188.652 470.011 204.608 463.079 212.675 452.05C220.735 441.029 220.887 425.957 219.703 407.662C219.502 404.557 219.262 401.357 219.016 398.068L219.014 398.052C216.355 362.56 212.909 316.563 248.621 264.726C263.957 242.466 280.335 228.789 296.985 221.306C297.239 221.192 297.494 221.079 297.749 220.967C301.905 223.685 305.898 226.424 309.706 229.11C298.622 237.07 287.785 248.203 277.43 263.234C241.662 315.153 245.115 361.237 247.776 396.732C248.023 400.027 248.263 403.232 248.464 406.341C249.649 424.65 249.482 439.622 241.489 450.551C233.502 461.47 217.67 468.391 187.4 470.5L187.434 470.793C217.732 468.682 233.688 461.75 241.755 450.72C249.815 439.7 249.967 424.628 248.783 406.332C248.582 403.227 248.342 400.028 248.095 396.738L248.094 396.722C245.435 361.23 241.989 315.234 277.701 263.396C288.061 248.358 298.897 237.238 309.971 229.297C311.876 230.643 313.734 231.975 315.542 233.284L315.735 233.055C313.948 231.761 312.111 230.444 310.228 229.114C310.763 228.733 311.297 228.36 311.833 227.994C319.785 233.022 327.201 238.208 333.927 243.078L334.12 242.849C327.419 237.998 320.028 232.828 312.1 227.812C313.501 226.861 314.905 225.961 316.312 225.108C330.832 232.835 344.129 241.944 355.465 250.151L355.658 249.922C344.359 241.742 331.098 232.654 316.607 224.93C318.78 223.625 320.961 222.434 323.147 221.353C344.452 230.112 363.951 243.233 379.677 254.618L379.87 254.389C364.202 243.047 344.76 229.957 323.499 221.18C324.354 220.762 325.209 220.361 326.064 219.977C328.053 219.083 330.045 218.278 332.04 217.557C360.08 225.15 386.065 242.365 405.993 256.791L406.185 256.562C386.355 242.206 360.478 225.052 332.522 217.384C335.916 216.181 339.317 215.22 342.72 214.482C344.156 214.642 345.589 214.832 347.018 215.051C379.936 220.097 410.936 240.419 433.894 257.039L434.087 256.81C411.13 240.19 380.071 219.821 347.061 214.761C345.918 214.586 344.771 214.429 343.623 214.291C354.511 212.055 365.405 212.082 376.098 213.721C409.016 218.767 440.016 239.089 462.974 255.709L463.167 255.48ZM287.749 211.98C287.021 211.904 286.292 211.837 285.562 211.777C286.752 212.139 287.937 212.518 289.118 212.912C288.664 212.601 288.208 212.291 287.749 211.98ZM290.01 213.523C288.083 212.864 286.145 212.247 284.197 211.675C283.828 211.65 283.459 211.627 283.089 211.606C284.054 212.158 285.012 212.716 285.964 213.277C286.921 213.729 287.873 214.188 288.821 214.654C289.584 214.519 290.347 214.395 291.11 214.281C290.745 214.029 290.378 213.776 290.01 213.523ZM291.542 214.218C291.383 214.108 291.224 213.998 291.064 213.887C291.333 213.981 291.601 214.076 291.869 214.172C291.76 214.187 291.651 214.202 291.542 214.218ZM291.466 214.528C290.735 214.634 290.003 214.75 289.271 214.876C292.61 216.528 295.891 218.265 299.106 220.06L299.219 220.014C296.723 218.216 294.137 216.38 291.466 214.528ZM299.544 219.88C297.083 218.106 294.533 216.294 291.9 214.466L292.114 214.436L292.301 214.411L292.471 214.388C295.999 215.663 299.484 217.07 302.918 218.582C301.792 218.988 300.668 219.42 299.544 219.88ZM299.506 220.221L299.441 220.248C299.596 220.334 299.75 220.421 299.904 220.508L299.506 220.221ZM300.541 220.868L300.681 220.702L300.317 220.438L299.832 220.088C300.992 219.615 302.154 219.173 303.316 218.758C307.631 220.671 311.864 222.75 315.998 224.942C314.601 225.791 313.208 226.688 311.818 227.633C308.167 225.329 304.403 223.059 300.541 220.868ZM290.158 213.263C289.569 212.858 288.976 212.453 288.379 212.047C289.857 212.21 291.331 212.405 292.801 212.63C294.518 212.894 296.231 213.198 297.937 213.542C296.126 213.666 294.314 213.846 292.5 214.086C291.721 213.805 290.941 213.531 290.158 213.263ZM279.592 210.413C280.082 210.537 280.57 210.664 281.059 210.795C281.329 210.946 281.598 211.098 281.867 211.251L281.676 211.243L281.489 211.235C280.859 210.957 280.226 210.683 279.592 210.413ZM282.221 211.111L282.521 211.281L282.715 211.291L282.902 211.301C282.675 211.237 282.448 211.174 282.221 211.111ZM282.225 211.561L282.431 211.571C282.576 211.654 282.722 211.737 282.867 211.82L283.1 211.954C282.809 211.822 282.517 211.691 282.225 211.561ZM297.773 220.627C294.86 218.724 291.866 216.831 288.801 214.973C292.182 216.639 295.504 218.392 298.759 220.206C298.603 220.271 298.448 220.337 298.292 220.403C298.219 220.435 298.146 220.466 298.073 220.498C297.973 220.541 297.873 220.584 297.773 220.627ZM309.963 228.926C306.178 226.255 302.208 223.53 298.076 220.825C298.414 220.678 298.754 220.534 299.093 220.392C303.368 222.784 307.527 225.279 311.55 227.816C311.021 228.179 310.491 228.549 309.963 228.926ZM303.321 218.438C299.963 216.952 296.555 215.567 293.106 214.306C295.084 214.058 297.061 213.88 299.035 213.769C302.579 214.519 306.096 215.434 309.578 216.491C307.49 217.052 305.404 217.7 303.321 218.438ZM316.293 224.763C312.194 222.587 307.998 220.52 303.72 218.615C305.85 217.869 307.983 217.217 310.117 216.656C314.395 217.974 318.618 219.503 322.774 221.2C320.607 222.279 318.446 223.465 316.293 224.763ZM323.126 221.026C324.055 220.568 324.986 220.13 325.918 219.712C327.787 218.872 329.66 218.109 331.535 217.421C327.445 216.331 323.312 215.448 319.148 214.808C316.318 215.227 313.487 215.792 310.657 216.516C314.871 217.83 319.032 219.348 323.126 221.026ZM310.115 216.348C312.795 215.647 315.477 215.088 318.158 214.661C312.208 213.803 306.197 213.45 300.162 213.713C303.507 214.453 306.827 215.338 310.115 216.348ZM332.016 217.246C328.093 216.188 324.13 215.317 320.138 214.668C327.39 213.682 334.63 213.651 341.795 214.383C338.532 215.126 335.27 216.075 332.016 217.246ZM201.7 164.169C234.709 169.229 265.769 189.598 288.725 206.218L288.533 206.447C265.575 189.827 234.574 169.505 201.656 164.459C185.203 161.937 168.271 163.232 151.623 170.714C134.973 178.197 118.595 191.874 103.26 214.134C67.5474 265.971 70.9936 311.968 73.6527 347.46C73.8996 350.755 74.1397 353.959 74.341 357.07C75.5254 375.365 75.3735 390.438 67.3134 401.458C59.2463 412.487 43.2905 419.419 12.9924 421.531L12.9589 421.238C43.2286 419.128 59.0606 412.208 67.047 401.288C75.0403 390.36 75.2076 375.387 74.0224 357.079C73.8212 353.971 73.5812 350.768 73.3344 347.474L73.3343 347.474L73.3343 347.473L73.3342 347.473L73.3342 347.472L73.3342 347.472L73.3341 347.471L73.3341 347.471L73.334 347.47L73.334 347.47L73.334 347.469C70.6739 311.974 67.2202 265.89 102.989 213.971C118.346 191.68 134.763 177.961 151.476 170.449C168.191 162.937 185.19 161.638 201.7 164.169ZM279.302 190.15C256.345 173.531 225.285 153.161 192.276 148.102C175.766 145.571 158.767 146.87 142.052 154.382C125.339 161.893 108.922 175.612 93.5651 197.904C57.7966 249.823 61.2503 295.907 63.9104 331.402C64.1574 334.697 64.3976 337.902 64.5988 341.011C65.784 359.32 65.6167 374.292 57.6234 385.221C49.637 396.14 33.8051 403.061 3.53535 405.17L3.56886 405.463C33.8669 403.352 49.8227 396.42 57.8898 385.39C65.95 374.37 66.1018 359.298 64.9175 341.002C64.7166 337.899 64.4771 334.702 64.2309 331.415L64.2303 331.408L64.2302 331.406L64.2291 331.392C61.5701 295.901 58.1239 249.904 93.8361 198.067C109.171 175.807 125.55 162.13 142.199 154.647C158.848 147.164 175.779 145.869 192.233 148.391C225.151 153.437 256.151 173.759 279.109 190.379L279.302 190.15ZM184.679 130.967C217.688 136.027 248.748 156.397 271.705 173.016L271.512 173.245C248.554 156.625 217.554 136.303 184.636 131.257C168.182 128.735 151.25 130.03 134.602 137.513C117.952 144.996 101.574 158.673 86.2388 180.932C50.5267 232.77 53.9728 278.766 56.6319 314.258L56.6329 314.272L56.6331 314.274L56.6336 314.281C56.8799 317.568 57.1193 320.765 57.3202 323.868C58.5046 342.164 58.3527 357.236 50.2926 368.256C42.2255 379.286 26.2697 386.218 -4.0284 388.329L-4.0619 388.036C26.2078 385.927 42.0398 379.006 50.0261 368.087C58.0195 357.158 58.1867 342.186 57.0016 323.877C56.8005 320.77 56.5606 317.569 56.3138 314.276L56.3138 314.275L56.3133 314.269L56.3132 314.268C53.653 278.773 50.1994 232.689 85.9678 180.77C101.325 158.478 117.742 144.759 134.455 137.248C151.17 129.735 168.169 128.437 184.679 130.967ZM265.246 155.251C242.289 138.632 211.23 118.262 178.22 113.203C161.71 110.672 144.711 111.971 127.997 119.483C111.284 126.994 94.8667 140.713 79.5093 163.005C43.7409 214.924 47.1946 261.008 49.8547 296.503C50.1017 299.798 50.3418 303.003 50.5431 306.112C51.7283 324.421 51.561 339.393 43.5677 350.322C35.5813 361.241 19.7493 368.162 -10.5204 370.271L-10.4869 370.564C19.8112 368.453 35.767 361.521 43.8341 350.491C51.8942 339.471 52.0461 324.399 50.8618 306.103C50.6604 302.993 50.4203 299.788 50.1734 296.493C47.5143 261.002 44.0682 215.005 79.7803 163.168C95.1157 140.908 111.494 127.231 128.144 119.748C144.792 112.265 161.723 110.971 178.177 113.493C211.095 118.538 242.095 138.86 265.053 155.481L265.246 155.251ZM172.319 95.1376C205.329 100.197 236.388 120.567 259.345 137.186L259.152 137.416C236.194 120.795 205.194 100.473 172.276 95.4276C155.822 92.9055 138.891 94.2003 122.243 101.683C105.593 109.166 89.2146 122.843 73.8793 145.103C38.1672 196.94 41.6133 242.937 44.2724 278.428C44.5193 281.723 44.7594 284.928 44.9607 288.038C46.145 306.334 45.9932 321.406 37.9331 332.426C29.8659 343.456 13.9102 350.388 -16.3879 352.499L-16.4214 352.206C13.8483 350.097 29.6803 343.176 37.6666 332.257C45.6599 321.328 45.8272 306.356 44.6421 288.047C44.4408 284.938 44.2007 281.733 43.9537 278.438C41.2935 242.943 37.8399 196.859 73.6083 144.94C88.9657 122.648 105.383 108.929 122.096 101.418C138.81 93.9057 155.809 92.6069 172.319 95.1376ZM253.538 119.073C230.581 102.454 199.522 82.0843 166.512 77.0245C150.002 74.4938 133.003 75.7926 116.289 83.3048C99.5756 90.8163 83.1586 104.535 67.8012 126.827C32.0328 178.746 35.4865 224.83 38.1466 260.325C38.3936 263.62 38.6337 266.825 38.835 269.934C40.0202 288.243 39.8529 303.215 31.8596 314.144C23.8732 325.063 8.04121 331.984 -22.2285 334.093L-22.195 334.386C8.10311 332.275 24.0589 325.343 32.126 314.313C40.1861 303.293 40.338 288.221 39.1536 269.925C38.9523 266.815 38.7122 263.61 38.4653 260.315C35.8062 224.824 32.3601 178.827 68.0722 126.99C83.4075 104.73 99.7857 91.0528 116.435 83.5697C133.084 76.0872 150.015 74.7924 166.469 77.3145C199.387 82.3603 230.387 102.682 253.345 119.302L253.538 119.073ZM160.45 59.0441C193.46 64.104 224.519 84.4736 247.476 101.093L247.284 101.322C224.325 84.7016 193.325 64.3799 160.407 59.3341C143.953 56.812 127.022 58.1069 110.374 65.5893C93.7238 73.0725 77.3457 86.7495 62.0104 109.009C26.2982 160.846 29.7444 206.843 32.4034 242.335C32.6503 245.63 32.8904 248.835 33.0918 251.945C34.2761 270.24 34.1243 285.313 26.0641 296.333C17.997 307.362 2.04126 314.295 -28.2568 316.406L-28.2903 316.113C1.97937 314.003 17.8114 307.083 25.7977 296.163C33.791 285.235 33.9583 270.262 32.7731 251.954C32.5719 248.844 32.3317 245.64 32.0847 242.344C29.4246 206.849 25.9709 160.765 61.7394 108.846C77.0968 86.5547 93.5138 72.8359 110.227 65.3244C126.941 57.8122 143.94 56.5134 160.45 59.0441ZM240.904 83.3898C217.947 66.7704 186.888 46.4008 153.879 41.341C137.369 38.8102 120.369 40.109 103.655 47.6212C86.9419 55.1327 70.5249 68.8515 55.1675 91.1432C19.3991 143.062 22.8528 189.146 25.5129 224.641C25.7599 227.937 26 231.141 26.2013 234.25C27.3865 252.559 27.2192 267.532 19.2259 278.46C11.2395 289.38 -4.59247 296.3 -34.8622 298.409L-34.8287 298.703C-4.53058 296.591 11.4252 289.659 19.4923 278.63C27.5524 267.609 27.7043 252.537 26.5199 234.242C26.3186 231.131 26.0785 227.927 25.8316 224.631C23.1725 189.14 19.7264 143.143 55.4385 91.306C70.7739 69.0463 87.152 55.3693 103.802 47.8862C120.45 40.4037 137.382 39.1088 153.835 41.6309C186.753 46.6767 217.754 66.9984 240.712 83.6188L240.904 83.3898ZM146.621 24.0179C179.63 29.0777 210.69 49.4473 233.647 66.0668L233.454 66.2958C210.496 49.6754 179.496 29.3537 146.578 24.3079C130.124 21.7858 113.193 23.0807 96.5443 30.5631C79.8945 38.0463 63.5164 51.7233 48.1811 73.983C12.4689 125.82 15.9151 171.817 18.5741 207.308L18.5746 207.314C18.8213 210.607 19.0613 213.81 19.2625 216.919C20.4468 235.214 20.295 250.286 12.2348 261.307C4.16771 272.336 -11.788 279.268 -42.0861 281.38L-42.1196 281.086C-11.8499 278.977 3.98206 272.057 11.9684 261.137C19.9617 250.209 20.129 235.236 18.9439 216.927C18.7426 213.819 18.5026 210.615 18.2556 207.321L18.2554 207.318C15.5953 171.823 12.1416 125.739 47.9101 73.8202C63.2675 51.5285 79.6845 37.8097 96.3975 30.2982C113.112 22.786 130.111 21.4872 146.621 24.0179ZM225.587 49.196C202.63 32.5765 171.57 12.2069 138.561 7.14713C122.051 4.61643 105.052 5.91519 88.3372 13.4274C71.6242 20.9389 55.2072 34.6577 39.8498 56.9494C4.08135 108.868 7.53504 154.952 10.1951 190.447L10.1953 190.45C10.4423 193.745 10.6823 196.948 10.8836 200.057C12.0687 218.365 11.9015 233.338 3.90812 244.266C-4.07823 255.186 -19.9102 262.106 -50.1799 264.216L-50.1464 264.509C-19.8483 262.398 -3.89255 255.465 4.17456 244.436C12.2347 233.416 12.3865 218.343 11.2022 200.048C11.0011 196.942 10.7614 193.742 10.5149 190.451L10.5139 190.438C7.85478 154.946 4.40864 108.949 40.1208 57.1122C55.4561 34.8525 71.8342 21.1755 88.4841 13.6923C105.132 6.20986 122.064 4.915 138.518 7.43711C171.436 12.4829 202.436 32.8046 225.394 49.425L225.587 49.196Z" fill="url(#paint0_radial_20_161)" fill-opacity="0.4"/>
</g>
<defs>
<radialGradient id="paint0_radial_20_161" cx="0" cy="0" r="1" gradientUnits="userSpaceOnUse" gradientTransform="translate(141.154 98.2177) rotate(99.4836) scale(118.896 117.314)">
<stop stop-color="white"/>
<stop offset="1" stop-color="white" stop-opacity="0.3"/>
</radialGradient>
<clipPath id="clip0_20_161">
<rect width="213.61" height="212" fill="white"/>
</clipPath>
</defs>
</svg>
